<?xml version="1.0" encoding="utf-8"?>
<!-- Generator: Adobe Illustrator 24.3.0, SVG Export Plug-In . SVG Version: 6.00 Build 0)  -->
<svg version="1.1" id="Layer_1" xmlns="http://www.w3.org/2000/svg" xmlns:xlink="http://www.w3.org/1999/xlink" x="0px" y="0px"
	 viewBox="0 0 800 800" style="enable-background:new 0 0 800 800;" xml:space="preserve">
<style type="text/css">
	.st0{fill:#FFFFFF;}
	.st1{fill:#9ACDE0;}
	.st2{fill:#454B60;}
	.st3{opacity:0.45;}
	.st4{fill:#060040;}
	.st5{fill:url(#SVGID_1_);}
	.st6{fill:url(#SVGID_2_);}
	.st7{fill:url(#SVGID_3_);}
	.st8{fill:url(#SVGID_4_);}
	.st9{fill:url(#SVGID_5_);}
	.st10{fill:url(#SVGID_6_);}
	.st11{fill:url(#SVGID_7_);}
	.st12{fill:url(#SVGID_8_);}
	.st13{fill:url(#SVGID_9_);}
	.st14{fill:url(#SVGID_10_);}
	.st15{fill:url(#SVGID_11_);}
	.st16{fill:url(#SVGID_12_);}
	.st17{fill:url(#SVGID_13_);}
	.st18{fill:url(#SVGID_14_);}
	.st19{fill:url(#SVGID_15_);}
	.st20{fill:url(#SVGID_16_);}
	.st21{fill:url(#SVGID_17_);}
	.st22{fill:url(#SVGID_18_);}
	.st23{fill:url(#SVGID_19_);}
	.st24{fill:url(#SVGID_20_);}
	.st25{fill:url(#SVGID_21_);}
	.st26{fill:url(#SVGID_22_);}
	.st27{fill:url(#SVGID_23_);}
	.st28{fill:url(#SVGID_24_);}
	.st29{fill:url(#SVGID_25_);}
	.st30{fill:url(#SVGID_26_);}
	.st31{fill:url(#SVGID_27_);}
	.st32{fill:url(#SVGID_28_);}
	.st33{fill:url(#SVGID_29_);}
	.st34{fill:url(#SVGID_30_);}
	.st35{fill:url(#SVGID_31_);}
	.st36{fill:url(#SVGID_32_);}
	.st37{fill:url(#SVGID_33_);}
	.st38{fill:url(#SVGID_34_);}
	.st39{fill:url(#SVGID_35_);}
	.st40{fill:url(#SVGID_36_);}
	.st41{fill:url(#SVGID_37_);}
	.st42{fill:url(#SVGID_38_);}
	.st43{fill:url(#SVGID_39_);}
	.st44{fill:url(#SVGID_40_);}
	.st45{fill:url(#SVGID_41_);}
	.st46{fill:url(#SVGID_42_);}
	.st47{fill:url(#SVGID_43_);}
	.st48{fill:url(#SVGID_44_);}
	.st49{fill:url(#SVGID_45_);}
	.st50{fill:url(#SVGID_46_);}
	.st51{fill:url(#SVGID_47_);}
	.st52{fill:url(#SVGID_48_);}
	.st53{fill:url(#SVGID_49_);}
	.st54{fill:#FFFFFE;}
	.st55{fill:url(#SVGID_50_);}
</style>
<g>
	<g>
		<path class="st0" d="M532.7,576H267.4c-23.9,0-43.4-19.4-43.4-43.3V267.4c0-23.9,19.4-43.4,43.4-43.4h265.3
			c23.9,0,43.3,19.4,43.3,43.4v265.3C576,556.6,556.6,576,532.7,576z"/>
	</g>
	<rect x="340.3" y="366" class="st1" width="118.9" height="6.3"/>
	<path class="st1" d="M459.7,378.3v65.6c0,29.3-21.9,54.6-50.8,58.9l-0.2,0l-8.9,8.9l-9-9l-0.2,0c-28.9-4.7-49.9-29.4-49.9-58.7
		v-65.6H459.7z"/>
	<path class="st2" d="M339.3,365v8.2h120.8V365H339.3z M459.2,372.3H340.3V366h118.9V372.3z"/>
	<path class="st2" d="M408.3,281.1c-1.3-2.3-3.5-3.9-6.1-4.6v-6.3h4.3v-4.9h-4.3V259h-4.9v6.3H393v4.9h4.3v6.3
		c-2.5,0.7-4.7,2.3-6.1,4.6l-0.4,0.7h17.9L408.3,281.1z M392.5,280.9c1.3-1.8,3.2-3,5.4-3.5l0.4-0.1v-8.1h-4.3v-3h4.3V260h3v6.3h4.3
		v3h-4.3v8.1l0.4,0.1c2.2,0.5,4.1,1.7,5.4,3.5H392.5z"/>
	<path class="st1" d="M406.9,280.9h-14.5c1.3-1.8,3.2-3,5.4-3.5l0.4-0.1v-8.1h-4.3v-3h4.3V260h3v6.3h4.3v3h-4.3v8.1l0.4,0.1
		C403.7,277.8,405.7,279.1,406.9,280.9z"/>
	<path class="st2" d="M356.5,346.4c-3.6-5.4-5.9-10.4-6.8-14.9c-0.8-2.7-1.3-5.8-1.4-8.9c0-7.1,1.7-12.5,3.2-15.8l0,0l0.1-0.2
		c0.7-1.6,1.5-3,2.4-4.4l0.7-1l-1.2,0.3c-2.4,0.6-4.7,1.4-6.8,2.6c-5.9,3.1-10.6,8.1-13.1,14c-6,14.1,2.8,27.6,9.2,35
		c0.1,0.1,0.2,0.2,0.2,0.3c3.5,4.4,7.8,5.2,7.8,5.2c-2.5-2-1-4.4-0.5-5.1c0,0,0,0,0,0c0,0,0-0.1,0.1-0.1c0,0,0-0.1,0.1-0.1l0,0
		c2-3.1,5.7-6.1,5.8-6.1l0.3-0.3L356.5,346.4z M349,353.9l-0.1,0.3c-1.4-0.6-3-1-4.6-1.1c-6.3-7-15.8-20.7-9.8-34.8
		c2.4-5.7,6.9-10.5,12.7-13.5c1.7-0.9,3.5-1.6,5.4-2.2c-0.6,1.1-1.2,2.2-1.8,3.4l0,0l-0.1,0.2c-1.5,3.4-3.4,9-3.3,16.4
		c0.1,3.2,0.6,6.3,1.4,9.1c0.9,4.5,3.2,9.5,6.7,14.9C354.3,347.5,350.6,350.8,349,353.9z"/>
	<path class="st2" d="M392.4,291.2c-0.5-0.8-0.9-1.6-1.2-2.4l-0.1,0c0.3,0.9,0.7,1.8,1.3,2.6c-8.9-4.7-19.7-4.8-28.5,0.6
		c-1.1,0.7-2.1,1.4-3.2,2.2c-5.8,0.1-11.5,1.5-16.6,4.1c-9.2,4.8-15.8,13.6-17.6,23.9c-0.8,4.6-0.7,9,0.3,13.2l0,0
		c-1-4.3-1-8.6-0.2-12.9c1.8-10,8.3-18.8,17.4-23.5c4.9-2.6,10.6-4,16.3-4.1h0.2l0.1-0.1c0.9-0.7,1.9-1.5,3.1-2.2
		c8.3-5.1,19-5.3,28-0.5l1.8,0.9L392.4,291.2z M392.4,291.2c-0.5-0.8-0.9-1.6-1.2-2.4l-0.1,0c0.3,0.9,0.7,1.8,1.3,2.6
		c-8.9-4.7-19.7-4.8-28.5,0.6c-1.1,0.7-2.1,1.4-3.2,2.2c-5.8,0.1-11.5,1.5-16.6,4.1c-9.2,4.8-15.8,13.6-17.6,23.9
		c-0.8,4.6-0.7,9,0.3,13.2l0,0c-1-4.3-1-8.6-0.2-12.9c1.8-10,8.3-18.8,17.4-23.5c4.9-2.6,10.6-4,16.3-4.1h0.2l0.1-0.1
		c0.9-0.7,1.9-1.5,3.1-2.2c8.3-5.1,19-5.3,28-0.5l1.8,0.9L392.4,291.2z M392.4,291.2c-0.5-0.8-0.9-1.6-1.2-2.4l-0.1,0
		c0.3,0.9,0.7,1.8,1.3,2.6c-8.9-4.7-19.7-4.8-28.5,0.6c-1.1,0.7-2.1,1.4-3.2,2.2c-5.8,0.1-11.5,1.5-16.6,4.1
		c-9.2,4.8-15.8,13.6-17.6,23.9c-0.8,4.6-0.7,9,0.3,13.2l0,0c-1-4.3-1-8.6-0.2-12.9c1.8-10,8.3-18.8,17.4-23.5
		c4.9-2.6,10.6-4,16.3-4.1h0.2l0.1-0.1c0.9-0.7,1.9-1.5,3.1-2.2c8.3-5.1,19-5.3,28-0.5l1.8,0.9L392.4,291.2z M392.4,291.2
		c-0.5-0.8-0.9-1.6-1.2-2.4l-0.1,0c0.3,0.9,0.7,1.8,1.3,2.6c-8.9-4.7-19.7-4.8-28.5,0.6c-1.1,0.7-2.1,1.4-3.2,2.2
		c-5.8,0.1-11.5,1.5-16.6,4.1c-9.2,4.8-15.8,13.6-17.6,23.9c-0.8,4.6-0.7,9,0.3,13.2l0,0c-1-4.3-1-8.6-0.2-12.9
		c1.8-10,8.3-18.8,17.4-23.5c4.9-2.6,10.6-4,16.3-4.1h0.2l0.1-0.1c0.9-0.7,1.9-1.5,3.1-2.2c8.3-5.1,19-5.3,28-0.5l1.8,0.9
		L392.4,291.2z M392.4,291.2c-0.5-0.8-0.9-1.6-1.2-2.4l-0.1,0c0.3,0.9,0.7,1.8,1.3,2.6c-8.9-4.7-19.7-4.8-28.5,0.6
		c-1.1,0.7-2.1,1.4-3.2,2.2c-5.8,0.1-11.5,1.5-16.6,4.1c-9.2,4.8-15.8,13.6-17.6,23.9c-0.8,4.6-0.7,9,0.3,13.2l0,0
		c-1-4.3-1-8.6-0.2-12.9c1.8-10,8.3-18.8,17.4-23.5c4.9-2.6,10.6-4,16.3-4.1h0.2l0.1-0.1c0.9-0.7,1.9-1.5,3.1-2.2
		c8.3-5.1,19-5.3,28-0.5l1.8,0.9L392.4,291.2z M474.2,326.1c-0.6-11.6-7.8-22.4-18.7-28.1c-5-2.6-10.7-4.1-16.6-4.2
		c-0.9-0.7-1.9-1.5-3.1-2.2c-8.1-5-18.1-5.5-27.1-1.5c0.6-1.3,0.9-2.7,0.9-4.1c0-0.5,0-1.1-0.1-1.6l-0.1-0.4H390l-0.1,0.4
		c-0.1,0.5-0.1,1.1-0.1,1.6c0,1.5,0.3,2.9,1,4.3c-9-4.1-19.4-3.7-27.5,1.3c-1.2,0.7-2.2,1.5-3.1,2.2c-5.9,0.1-11.6,1.6-16.6,4.2
		c-9.3,4.9-16,13.9-17.9,24.2c-1.8,9.8,0.7,19.2,7.7,29.5c1.2,1.8,2.4,3.6,3.5,5.4c0.7,1.1,1.4,2.3,2.2,3.4l0.1,0.2h120.4
		c0.6,0,1.4-0.9,4.5-6.3c0.4-0.6,0.6-1.1,0.8-1.3c1.6-2.5,3.4-5.4,4.9-8.6c2.9-5.8,4.4-11.4,4.4-16.6
		C474.3,327.4,474.2,326.8,474.2,326.1z M468.9,344.2c-1.5,3.1-3.3,6-4.9,8.5c-0.1,0.2-0.4,0.7-0.8,1.4c-0.8,1.5-3,5.4-3.7,5.8
		H339.7c-0.7-1.1-1.3-2.1-2-3.2c-1.1-1.8-2.3-3.7-3.5-5.5c-3.7-5.5-6.1-10.7-7.3-15.9c-1-4.3-1-8.6-0.2-12.9
		c1.8-10,8.3-18.8,17.4-23.5c4.9-2.6,10.6-4,16.3-4.1h0.2l0.1-0.1c0.9-0.7,1.9-1.5,3.1-2.2c8.3-5.1,19-5.3,28-0.5l1.8,0.9l-1.2-1.7
		c-0.5-0.8-0.9-1.6-1.2-2.4c-0.3-0.9-0.4-1.8-0.4-2.7c0-0.3,0-0.7,0.1-1h17.7c0,0.4,0.1,0.7,0.1,1c0,1.7-0.5,3.4-1.5,4.9l-1,1.5
		l1.6-0.8c9-4.5,19.3-4.2,27.5,0.8c1.2,0.7,2.2,1.5,3.1,2.2l0.1,0.1h0.2c5.8,0.1,11.4,1.5,16.4,4.1c10.5,5.4,17.6,16.2,18.2,27.3
		c0,0.6,0,1.2,0,1.9C473.2,333.1,471.7,338.5,468.9,344.2z M392.4,291.2c-0.5-0.8-0.9-1.6-1.2-2.4l-0.1,0c0.3,0.9,0.7,1.8,1.3,2.6
		c-8.9-4.7-19.7-4.8-28.5,0.6c-1.1,0.7-2.1,1.4-3.2,2.2c-5.8,0.1-11.5,1.5-16.6,4.1c-9.2,4.8-15.8,13.6-17.6,23.9
		c-0.8,4.6-0.7,9,0.3,13.2l0,0c-1-4.3-1-8.6-0.2-12.9c1.8-10,8.3-18.8,17.4-23.5c4.9-2.6,10.6-4,16.3-4.1h0.2l0.1-0.1
		c0.9-0.7,1.9-1.5,3.1-2.2c8.3-5.1,19-5.3,28-0.5l1.8,0.9L392.4,291.2z M392.4,291.2c-0.5-0.8-0.9-1.6-1.2-2.4l-0.1,0
		c0.3,0.9,0.7,1.8,1.3,2.6c-8.9-4.7-19.7-4.8-28.5,0.6c-1.1,0.7-2.1,1.4-3.2,2.2c-5.8,0.1-11.5,1.5-16.6,4.1
		c-9.2,4.8-15.8,13.6-17.6,23.9c-0.8,4.6-0.7,9,0.3,13.2l0,0c-1-4.3-1-8.6-0.2-12.9c1.8-10,8.3-18.8,17.4-23.5
		c4.9-2.6,10.6-4,16.3-4.1h0.2l0.1-0.1c0.9-0.7,1.9-1.5,3.1-2.2c8.3-5.1,19-5.3,28-0.5l1.8,0.9L392.4,291.2z M392.4,291.2
		c-0.5-0.8-0.9-1.6-1.2-2.4l-0.1,0c0.3,0.9,0.7,1.8,1.3,2.6c-8.9-4.7-19.7-4.8-28.5,0.6c-1.1,0.7-2.1,1.4-3.2,2.2
		c-5.8,0.1-11.5,1.5-16.6,4.1c-9.2,4.8-15.8,13.6-17.6,23.9c-0.8,4.6-0.7,9,0.3,13.2l0,0c-1-4.3-1-8.6-0.2-12.9
		c1.8-10,8.3-18.8,17.4-23.5c4.9-2.6,10.6-4,16.3-4.1h0.2l0.1-0.1c0.9-0.7,1.9-1.5,3.1-2.2c8.3-5.1,19-5.3,28-0.5l1.8,0.9
		L392.4,291.2z M392.4,291.2c-0.5-0.8-0.9-1.6-1.2-2.4l-0.1,0c0.3,0.9,0.7,1.8,1.3,2.6c-8.9-4.7-19.7-4.8-28.5,0.6
		c-1.1,0.7-2.1,1.4-3.2,2.2c-5.8,0.1-11.5,1.5-16.6,4.1c-9.2,4.8-15.8,13.6-17.6,23.9c-0.8,4.6-0.7,9,0.3,13.2l0,0
		c-1-4.3-1-8.6-0.2-12.9c1.8-10,8.3-18.8,17.4-23.5c4.9-2.6,10.6-4,16.3-4.1h0.2l0.1-0.1c0.9-0.7,1.9-1.5,3.1-2.2
		c8.3-5.1,19-5.3,28-0.5l1.8,0.9L392.4,291.2z"/>
	<path class="st1" d="M473.3,326.2c-0.6-11.1-7.7-21.8-18.2-27.3c-4.9-2.6-10.6-4-16.4-4.1h-0.2l-0.1-0.1c-0.9-0.7-1.9-1.5-3.1-2.2
		c-8.2-5-18.5-5.3-27.5-0.8l-1.6,0.8l1-1.5c0.9-1.5,1.5-3.1,1.5-4.9c0-0.3,0-0.7-0.1-1h-17.7c0,0.4-0.1,0.7-0.1,1
		c0,0.9,0.1,1.8,0.4,2.7c0.3,0.9,0.7,1.7,1.2,2.4l1.2,1.7l-1.8-0.9c-9-4.7-19.7-4.5-28,0.5c-1.2,0.7-2.2,1.5-3.1,2.2l-0.1,0.1h-0.2
		c-5.8,0.1-11.4,1.5-16.3,4.1c-9.1,4.7-15.6,13.5-17.4,23.5c-0.8,4.4-0.7,8.6,0.2,12.9c1.1,5.2,3.6,10.4,7.3,15.9
		c1.2,1.8,2.4,3.7,3.5,5.5c0.7,1.1,1.3,2.1,2,3.2h119.8c0.7-0.4,2.9-4.3,3.7-5.8c0.4-0.7,0.6-1.1,0.8-1.4c1.6-2.4,3.3-5.3,4.9-8.5
		c2.8-5.7,4.3-11.1,4.3-16.1C473.3,327.4,473.3,326.8,473.3,326.2z M356.4,347.1c0,0-3.7,3-5.8,6.1l0,0c0,0,0,0-0.1,0.1
		c0,0,0,0.1-0.1,0.1c0,0,0,0,0,0c-0.5,0.7-2,3.1,0.5,5.1c0,0-4.3-0.8-7.8-5.2c-0.1-0.1-0.2-0.2-0.2-0.3c-6.4-7.4-15.2-20.9-9.2-35
		c2.5-5.9,7.2-10.9,13.1-14c2.1-1.1,4.4-2,6.8-2.6l1.2-0.3l-0.7,1c-0.9,1.4-1.7,2.9-2.4,4.4l-0.1,0.2l0,0c-1.5,3.3-3.2,8.8-3.2,15.8
		c0.1,3.1,0.6,6.2,1.4,8.9c0.9,4.5,3.2,9.5,6.8,14.9l0.2,0.4L356.4,347.1z M437,344.6l-0.3-0.1c-1.4-0.3-2.7-0.5-3.9-0.5
		c-3.7,0-7.3,1.1-10.3,3.2c-0.6,2.4-2.7,4.2-2.9,4.3c0.7-1.9,0.5-3.4,0.1-4.3c-1-1.9-2.2-3.6-3.7-5.2l-2.2-0.7l2.6,3.5l-0.4,4.3
		h-4.1l-5.8-4.9h-0.8l5.5,5.1v7.4l-10.6-5.6l-10.6,5.6v-7.4l5.2-5.1h-0.6l-5.8,4.9h-4.1l-0.5-4.3l2.6-3.6l-3.3,0.8l0-0.2l-0.1,0.1
		c-1.6,1.7-2.9,3.6-3.9,5.6c-0.4,0.9-0.7,2.4,0.1,4.4c0,0-2.7-2.2-3-5.1c-2.9-1.9-6.4-3-10-3c-1.1,0-2.2,0.1-3.5,0.4
		c-0.1,0-0.3,0.1-0.4,0.1l-0.3,0.1l-0.2-0.3c-3.7-5.3-5.9-10-6.7-14.3c-0.8-2.7-1.2-5.6-1.2-8.5c0-10.1,4.9-19.3,12.8-24.2
		c3.6-2.2,7.7-3.4,11.8-3.4c6.8,0,13.4,3.3,18.1,9.1l0.1,0.1v11.3l0,0l-1.6,3.4h-5.7l1.2,7l-2.9,2.6c2,0.6,6.7,2.4,8.5,6.2l0.3,0.6
		l-0.6,0.1c-0.2,0-4.4,0.7-7.6-4l-4.6-2l0.4,3.2l4.6,4.6l-6.8-1.8l-3.9,3.6l4.7,3.2l0.2-0.1l0,0l5.9-1.5l-4,5.4l0.3,3h2.8l5.8-4.9
		h3.3l-6.6,6.5v5.4l9.6-5.1l9.6,5.1v-5.4l-7-6.5h3.6l5.8,4.9h2.8l0.3-3l-4.1-5.5l5.1,1.6l0.2,0.1l4.7-3.2l-3.9-3.6l-6.8,1.8l4.6-4.6
		l0.4-3.2l-4.6,2c-3.2,4.7-7.4,4-7.6,4l-0.5-0.1l-0.2,0l0.3-0.6c1.7-3.8,6.5-5.6,8.5-6.2l-2.9-2.6l1.2-7h-5.7l-1.7-3.5l-0.3-11.2
		l0.1-0.1c4.7-5.8,11.3-9.1,18.1-9.1c4.1,0,8.2,1.2,11.8,3.4c7.9,4.9,12.8,14.1,12.8,24.2c0,2.9-0.4,5.8-1.2,8.6
		c-0.8,4.2-3,8.9-6.7,14.2L437,344.6z M466.1,336.5c-1.2,4.9-4.6,10.5-10.1,16.8h0c-3.5,4.4-7.8,5.2-7.8,5.2
		c1.4-1.2,1.5-2.5,1.3-3.5c0-0.1-0.1-0.1-0.1-0.2c-0.1-0.1-0.1-0.2-0.2-0.4l-0.1-0.3l0,0c-1.8-3.4-6.3-7-6.3-7l-0.3-0.3l0.2-0.4
		c3.6-5.4,5.9-10.4,6.8-14.9c0.8-2.8,1.3-5.9,1.4-9c0-7-1.7-12.5-3.2-15.8l-0.1-0.2c-0.7-1.6-1.5-3-2.4-4.4l-0.7-1l1.2,0.3
		c2.4,0.6,4.7,1.4,6.8,2.6c9.4,4.9,15.2,14.1,15.2,24.1C467.6,330.9,467.1,333.8,466.1,336.5z"/>
	<path class="st2" d="M452.4,304c-2.1-1.1-4.4-2-6.8-2.6l-1.2-0.3l0.7,1c0.9,1.4,1.7,2.9,2.4,4.4l0.1,0.2c1.5,3.3,3.2,8.8,3.2,15.8
		c-0.1,3.1-0.6,6.2-1.4,9c-0.9,4.5-3.2,9.5-6.8,14.9l-0.2,0.4l0.3,0.3c0,0,4.5,3.6,6.3,7l0,0l0.1,0.3c0.1,0.1,0.1,0.3,0.2,0.4
		c0,0.1,0.1,0.1,0.1,0.2c0.3,1,0.2,2.3-1.3,3.5c0,0,4.3-0.8,7.8-5.2h0c5.5-6.2,9-11.9,10.1-16.8c0.9-2.7,1.4-5.5,1.4-8.4
		C467.6,318.1,461.8,308.8,452.4,304z M465.2,336.2L465.2,336.2c-1,4.1-3.6,8.8-7.8,13.9c-0.4,0.5-0.9,1-1.4,1.6
		c-0.4,0.5-0.9,1-1.3,1.5c-1.6,0.1-3.2,0.5-4.6,1l-0.1-0.3c-1.6-3.1-5.2-6.4-6.4-7.3c3.5-5.4,5.8-10.4,6.7-14.8
		c0.8-2.8,1.3-6,1.4-9.2c0-7.3-1.8-13-3.3-16.4l-0.1-0.2h0c-0.5-1.2-1.1-2.3-1.8-3.4c1.9,0.5,3.7,1.3,5.4,2.2
		c9,4.7,14.6,13.6,14.6,23.2C466.6,330.8,466.1,333.6,465.2,336.2z"/>
	<path class="st2" d="M389.1,329.9c0,0,0-0.1-0.1-0.1l-0.1-0.1l-3.2-1.4l-3.2-1.4l0.7,5.2l2.3,2.3l-3.8-1l-5.1,4.8l5.4,3.7
		c-1.5,1.6-2.7,3.5-3.7,5.4c-3.4-2.7-7.6-4.2-12-4.2c-1.2,0-2.4,0.1-3.8,0.4c-3.2-4.7-5.3-9.1-6.3-12.9l0,0c1,4.3,3.4,8.8,6.5,13.3
		c1.3-0.3,2.6-0.5,4-0.5c4.6,0,8.9,1.7,12.1,4.5c0-0.1,0.1-0.2,0.2-0.3c1-2.2,2.4-4.2,4.1-6l0,0l-5.4-3.6l4.5-4.2l5.3,1.4l-3.4-3.4
		l-0.4-3.3l-0.1-0.9L389.1,329.9L389.1,329.9z M389.1,329.9c0,0,0-0.1-0.1-0.1l-0.1-0.1l-3.2-1.4l-3.2-1.4l0.7,5.2l2.3,2.3l-3.8-1
		l-5.1,4.8l5.4,3.7c-1.5,1.6-2.7,3.5-3.7,5.4c-3.4-2.7-7.6-4.2-12-4.2c-1.2,0-2.4,0.1-3.8,0.4c-3.2-4.7-5.3-9.1-6.3-12.9l0,0
		c1,4.3,3.4,8.8,6.5,13.3c1.3-0.3,2.6-0.5,4-0.5c4.6,0,8.9,1.7,12.1,4.5c0-0.1,0.1-0.2,0.2-0.3c1-2.2,2.4-4.2,4.1-6l0,0l-5.4-3.6
		l4.5-4.2l5.3,1.4l-3.4-3.4l-0.4-3.3l-0.1-0.9L389.1,329.9L389.1,329.9z M389.1,329.9c0,0,0-0.1-0.1-0.1l-0.1-0.1l-3.2-1.4l-3.2-1.4
		l0.7,5.2l2.3,2.3l-3.8-1l-5.1,4.8l5.4,3.7c-1.5,1.6-2.7,3.5-3.7,5.4c-3.4-2.7-7.6-4.2-12-4.2c-1.2,0-2.4,0.1-3.8,0.4
		c-3.2-4.7-5.3-9.1-6.3-12.9l0,0c1,4.3,3.4,8.8,6.5,13.3c1.3-0.3,2.6-0.5,4-0.5c4.6,0,8.9,1.7,12.1,4.5c0-0.1,0.1-0.2,0.2-0.3
		c1-2.2,2.4-4.2,4.1-6l0,0l-5.4-3.6l4.5-4.2l5.3,1.4l-3.4-3.4l-0.4-3.3l-0.1-0.9L389.1,329.9L389.1,329.9z M389.1,329.9
		c0,0,0-0.1-0.1-0.1l-0.1-0.1l-3.2-1.4l-3.2-1.4l0.7,5.2l2.3,2.3l-3.8-1l-5.1,4.8l5.4,3.7c-1.5,1.6-2.7,3.5-3.7,5.4
		c-3.4-2.7-7.6-4.2-12-4.2c-1.2,0-2.4,0.1-3.8,0.4c-3.2-4.7-5.3-9.1-6.3-12.9l0,0c1,4.3,3.4,8.8,6.5,13.3c1.3-0.3,2.6-0.5,4-0.5
		c4.6,0,8.9,1.7,12.1,4.5c0-0.1,0.1-0.2,0.2-0.3c1-2.2,2.4-4.2,4.1-6l0,0l-5.4-3.6l4.5-4.2l5.3,1.4l-3.4-3.4l-0.4-3.3l-0.1-0.9
		L389.1,329.9L389.1,329.9z M389.1,329.9c0,0,0-0.1-0.1-0.1l-0.1-0.1l-3.2-1.4l-3.2-1.4l0.7,5.2l2.3,2.3l-3.8-1l-5.1,4.8l5.4,3.7
		c-1.5,1.6-2.7,3.5-3.7,5.4c-3.4-2.7-7.6-4.2-12-4.2c-1.2,0-2.4,0.1-3.8,0.4c-3.2-4.7-5.3-9.1-6.3-12.9l0,0c1,4.3,3.4,8.8,6.5,13.3
		c1.3-0.3,2.6-0.5,4-0.5c4.6,0,8.9,1.7,12.1,4.5c0-0.1,0.1-0.2,0.2-0.3c1-2.2,2.4-4.2,4.1-6l0,0l-5.4-3.6l4.5-4.2l5.3,1.4l-3.4-3.4
		l-0.4-3.3l-0.1-0.9L389.1,329.9L389.1,329.9z M389.1,329.9c0,0,0-0.1-0.1-0.1l-0.1-0.1l-3.2-1.4l-3.2-1.4l0.7,5.2l2.3,2.3l-3.8-1
		l-5.1,4.8l5.4,3.7c-1.5,1.6-2.7,3.5-3.7,5.4c-3.4-2.7-7.6-4.2-12-4.2c-1.2,0-2.4,0.1-3.8,0.4c-3.2-4.7-5.3-9.1-6.3-12.9l0,0
		c1,4.3,3.4,8.8,6.5,13.3c1.3-0.3,2.6-0.5,4-0.5c4.6,0,8.9,1.7,12.1,4.5c0-0.1,0.1-0.2,0.2-0.3c1-2.2,2.4-4.2,4.1-6l0,0l-5.4-3.6
		l4.5-4.2l5.3,1.4l-3.4-3.4l-0.4-3.3l-0.1-0.9L389.1,329.9L389.1,329.9z M389.1,329.9c0,0,0-0.1-0.1-0.1l-0.1-0.1l-3.2-1.4l-3.2-1.4
		l0.7,5.2l2.3,2.3l-3.8-1l-5.1,4.8l5.4,3.7c-1.5,1.6-2.7,3.5-3.7,5.4c-3.4-2.7-7.6-4.2-12-4.2c-1.2,0-2.4,0.1-3.8,0.4
		c-3.2-4.7-5.3-9.1-6.3-12.9l0,0c1,4.3,3.4,8.8,6.5,13.3c1.3-0.3,2.6-0.5,4-0.5c4.6,0,8.9,1.7,12.1,4.5c0-0.1,0.1-0.2,0.2-0.3
		c1-2.2,2.4-4.2,4.1-6l0,0l-5.4-3.6l4.5-4.2l5.3,1.4l-3.4-3.4l-0.4-3.3l-0.1-0.9L389.1,329.9L389.1,329.9z M389.1,329.9
		c0,0,0-0.1-0.1-0.1l-0.1-0.1l-3.2-1.4l-3.2-1.4l0.7,5.2l2.3,2.3l-3.8-1l-5.1,4.8l5.4,3.7c-1.5,1.6-2.7,3.5-3.7,5.4
		c-3.4-2.7-7.6-4.2-12-4.2c-1.2,0-2.4,0.1-3.8,0.4c-3.2-4.7-5.3-9.1-6.3-12.9l0,0c1,4.3,3.4,8.8,6.5,13.3c1.3-0.3,2.6-0.5,4-0.5
		c4.6,0,8.9,1.7,12.1,4.5c0-0.1,0.1-0.2,0.2-0.3c1-2.2,2.4-4.2,4.1-6l0,0l-5.4-3.6l4.5-4.2l5.3,1.4l-3.4-3.4l-0.4-3.3l-0.1-0.9
		L389.1,329.9L389.1,329.9z M432.3,297.4c-3.6-2.2-7.7-3.4-11.8-3.4c-6.8,0-13.4,3.3-18.1,9.1l-0.1,0.1l0.3,11.2l1.7,3.5h5.7l-1.2,7
		l2.9,2.6c-2,0.6-6.7,2.4-8.5,6.2l-0.3,0.6l0.2,0l0.5,0.1c0.2,0,4.4,0.7,7.6-4l4.6-2l-0.4,3.2l-4.6,4.6l6.8-1.8l3.9,3.6l-4.7,3.2
		l-0.2-0.1l-5.1-1.6l4.1,5.5l-0.3,3h-2.8l-5.8-4.9h-3.6l7,6.5v5.4l-9.6-5.1l-9.6,5.1v-5.4l6.6-6.5h-3.3l-5.8,4.9h-2.8l-0.3-3l4-5.4
		l-5.9,1.5l0,0l-0.2,0.1l-4.7-3.2l3.9-3.6l6.8,1.8l-4.6-4.6l-0.4-3.2l4.6,2c3.2,4.7,7.4,4,7.6,4l0.6-0.1l-0.3-0.6
		c-1.7-3.8-6.5-5.6-8.5-6.2l2.9-2.6l-1.2-7h5.7l1.6-3.4l0,0v-11.3l-0.1-0.1c-4.7-5.8-11.3-9.1-18.1-9.1c-4.1,0-8.2,1.2-11.8,3.4
		c-7.9,4.9-12.8,14.1-12.8,24.2c0,2.9,0.4,5.8,1.2,8.5c0.9,4.2,3.1,8.9,6.7,14.3l0.2,0.3l0.3-0.1c0.1,0,0.3-0.1,0.4-0.1
		c1.3-0.3,2.4-0.4,3.5-0.4c3.6,0,7,1,10,3c0.3,2.9,3,5.1,3,5.1c-0.8-2-0.5-3.5-0.1-4.4c1-2,2.3-3.9,3.9-5.6l0.1-0.1l0,0.2l3.3-0.8
		l-2.6,3.6l0.5,4.3h4.1l5.8-4.9h0.6l-5.2,5.1v7.4l10.6-5.6l10.6,5.6v-7.4l-5.5-5.1h0.8l5.8,4.9h4.1l0.4-4.3l-2.6-3.5l2.2,0.7
		c1.5,1.6,2.7,3.3,3.7,5.2c0.3,0.9,0.6,2.4-0.1,4.3c0.1-0.1,2.3-1.9,2.9-4.3c3-2.1,6.6-3.2,10.3-3.2c1.2,0,2.5,0.2,3.9,0.5l0.3,0.1
		l0.2-0.3c3.7-5.3,5.9-10,6.7-14.2c0.8-2.8,1.2-5.7,1.2-8.6C445.1,311.5,440.2,302.2,432.3,297.4z M354.9,321.6
		c0-9.7,4.7-18.7,12.3-23.4c3.4-2.1,7.3-3.2,11.3-3.2c6.5,0,12.8,3.1,17.3,8.6v10.8l-1.3,2.6h-6.2l1.3,7.6l-3.8,3.5l0.9,0.2
		c0.1,0,6,1.5,8.3,5.3c-1.2,0-3.8-0.5-5.9-3.6c0,0,0-0.1-0.1-0.1l-0.1-0.1l-3.2-1.4l-3.2-1.4l0.7,5.2l2.3,2.3l-3.8-1l-5.1,4.8
		l5.4,3.7c-1.5,1.6-2.7,3.5-3.7,5.4c-3.4-2.7-7.6-4.2-12-4.2c-1.2,0-2.4,0.1-3.8,0.4c-3.2-4.7-5.3-9.1-6.3-12.9
		c-0.1-0.3-0.1-0.5-0.2-0.8C355.3,327.2,354.9,324.4,354.9,321.6z M442.9,329.9c-0.8,4-2.9,8.6-6.4,13.6c-1.4-0.3-2.6-0.4-3.8-0.4
		c-4.3,0-8.6,1.5-12,4.2c-0.9-1.9-2.1-3.7-3.6-5.3l5.6-3.8l-5.1-4.8l-3.8,1l2.3-2.3l0.7-5.2l-3.2,1.4l-3.3,1.4l-0.1,0.1
		c-2.1,3.2-4.7,3.7-6,3.7c2.3-3.8,8.2-5.3,8.3-5.3l0.9-0.2l-3.8-3.5l1.3-7.6h-6.2l-1.4-2.7l-0.2-10.7c4.5-5.5,10.8-8.6,17.3-8.6
		c3.9,0,7.8,1.1,11.2,3.2c7.6,4.7,12.3,13.6,12.3,23.4C444.2,324.4,443.8,327.2,442.9,329.9z M389.1,329.9c0,0,0-0.1-0.1-0.1
		l-0.1-0.1l-3.2-1.4l-3.2-1.4l0.7,5.2l2.3,2.3l-3.8-1l-5.1,4.8l5.4,3.7c-1.5,1.6-2.7,3.5-3.7,5.4c-3.4-2.7-7.6-4.2-12-4.2
		c-1.2,0-2.4,0.1-3.8,0.4c-3.2-4.7-5.3-9.1-6.3-12.9l0,0c1,4.3,3.4,8.8,6.5,13.3c1.3-0.3,2.6-0.5,4-0.5c4.6,0,8.9,1.7,12.1,4.5
		c0-0.1,0.1-0.2,0.2-0.3c1-2.2,2.4-4.2,4.1-6l0,0l-5.4-3.6l4.5-4.2l5.3,1.4l-3.4-3.4l-0.4-3.3l-0.1-0.9L389.1,329.9L389.1,329.9z
		 M389.1,329.9c0,0,0-0.1-0.1-0.1l-0.1-0.1l-3.2-1.4l-3.2-1.4l0.7,5.2l2.3,2.3l-3.8-1l-5.1,4.8l5.4,3.7c-1.5,1.6-2.7,3.5-3.7,5.4
		c-3.4-2.7-7.6-4.2-12-4.2c-1.2,0-2.4,0.1-3.8,0.4c-3.2-4.7-5.3-9.1-6.3-12.9l0,0c1,4.3,3.4,8.8,6.5,13.3c1.3-0.3,2.6-0.5,4-0.5
		c4.6,0,8.9,1.7,12.1,4.5c0-0.1,0.1-0.2,0.2-0.3c1-2.2,2.4-4.2,4.1-6l0,0l-5.4-3.6l4.5-4.2l5.3,1.4l-3.4-3.4l-0.4-3.3l-0.1-0.9
		L389.1,329.9L389.1,329.9z M389.1,329.9c0,0,0-0.1-0.1-0.1l-0.1-0.1l-3.2-1.4l-3.2-1.4l0.7,5.2l2.3,2.3l-3.8-1l-5.1,4.8l5.4,3.7
		c-1.5,1.6-2.7,3.5-3.7,5.4c-3.4-2.7-7.6-4.2-12-4.2c-1.2,0-2.4,0.1-3.8,0.4c-3.2-4.7-5.3-9.1-6.3-12.9l0,0c1,4.3,3.4,8.8,6.5,13.3
		c1.3-0.3,2.6-0.5,4-0.5c4.6,0,8.9,1.7,12.1,4.5c0-0.1,0.1-0.2,0.2-0.3c1-2.2,2.4-4.2,4.1-6l0,0l-5.4-3.6l4.5-4.2l5.3,1.4l-3.4-3.4
		l-0.4-3.3l-0.1-0.9L389.1,329.9L389.1,329.9z M389.1,329.9c0,0,0-0.1-0.1-0.1l-0.1-0.1l-3.2-1.4l-3.2-1.4l0.7,5.2l2.3,2.3l-3.8-1
		l-5.1,4.8l5.4,3.7c-1.5,1.6-2.7,3.5-3.7,5.4c-3.4-2.7-7.6-4.2-12-4.2c-1.2,0-2.4,0.1-3.8,0.4c-3.2-4.7-5.3-9.1-6.3-12.9l0,0
		c1,4.3,3.4,8.8,6.5,13.3c1.3-0.3,2.6-0.5,4-0.5c4.6,0,8.9,1.7,12.1,4.5c0-0.1,0.1-0.2,0.2-0.3c1-2.2,2.4-4.2,4.1-6l0,0l-5.4-3.6
		l4.5-4.2l5.3,1.4l-3.4-3.4l-0.4-3.3l-0.1-0.9L389.1,329.9L389.1,329.9z M389.1,329.9c0,0,0-0.1-0.1-0.1l-0.1-0.1l-3.2-1.4l-3.2-1.4
		l0.7,5.2l2.3,2.3l-3.8-1l-5.1,4.8l5.4,3.7c-1.5,1.6-2.7,3.5-3.7,5.4c-3.4-2.7-7.6-4.2-12-4.2c-1.2,0-2.4,0.1-3.8,0.4
		c-3.2-4.7-5.3-9.1-6.3-12.9l0,0c1,4.3,3.4,8.8,6.5,13.3c1.3-0.3,2.6-0.5,4-0.5c4.6,0,8.9,1.7,12.1,4.5c0-0.1,0.1-0.2,0.2-0.3
		c1-2.2,2.4-4.2,4.1-6l0,0l-5.4-3.6l4.5-4.2l5.3,1.4l-3.4-3.4l-0.4-3.3l-0.1-0.9L389.1,329.9L389.1,329.9z M389.1,329.9
		c0,0,0-0.1-0.1-0.1l-0.1-0.1l-3.2-1.4l-3.2-1.4l0.7,5.2l2.3,2.3l-3.8-1l-5.1,4.8l5.4,3.7c-1.5,1.6-2.7,3.5-3.7,5.4
		c-3.4-2.7-7.6-4.2-12-4.2c-1.2,0-2.4,0.1-3.8,0.4c-3.2-4.7-5.3-9.1-6.3-12.9l0,0c1,4.3,3.4,8.8,6.5,13.3c1.3-0.3,2.6-0.5,4-0.5
		c4.6,0,8.9,1.7,12.1,4.5c0-0.1,0.1-0.2,0.2-0.3c1-2.2,2.4-4.2,4.1-6l0,0l-5.4-3.6l4.5-4.2l5.3,1.4l-3.4-3.4l-0.4-3.3l-0.1-0.9
		L389.1,329.9L389.1,329.9z M389.1,329.9c0,0,0-0.1-0.1-0.1l-0.1-0.1l-3.2-1.4l-3.2-1.4l0.7,5.2l2.3,2.3l-3.8-1l-5.1,4.8l5.4,3.7
		c-1.5,1.6-2.7,3.5-3.7,5.4c-3.4-2.7-7.6-4.2-12-4.2c-1.2,0-2.4,0.1-3.8,0.4c-3.2-4.7-5.3-9.1-6.3-12.9l0,0c1,4.3,3.4,8.8,6.5,13.3
		c1.3-0.3,2.6-0.5,4-0.5c4.6,0,8.9,1.7,12.1,4.5c0-0.1,0.1-0.2,0.2-0.3c1-2.2,2.4-4.2,4.1-6l0,0l-5.4-3.6l4.5-4.2l5.3,1.4l-3.4-3.4
		l-0.4-3.3l-0.1-0.9L389.1,329.9L389.1,329.9z"/>
	<path class="st2" d="M365.7,330.8c-3.1,0-5.6,2.5-5.6,5.6c0,3.1,2.5,5.6,5.6,5.6c3.1,0,5.6-2.5,5.6-5.6
		C371.3,333.3,368.8,330.8,365.7,330.8z M365.7,340.9c-2.5,0-4.6-2.1-4.6-4.6c0-2.5,2.1-4.6,4.6-4.6c2.5,0,4.6,2.1,4.6,4.6
		C370.3,338.9,368.2,340.9,365.7,340.9z"/>
	
		<ellipse transform="matrix(0.2298 -0.9732 0.9732 0.2298 -45.6771 614.9683)" class="st1" cx="365.7" cy="336.3" rx="4.6" ry="4.6"/>
	<path class="st2" d="M360.6,321.9c-2.2,0-4,1.8-4,4c0,2.2,1.8,4,4,4c2.2,0,4-1.8,4-4C364.6,323.7,362.8,321.9,360.6,321.9z
		 M360.6,328.9c-1.7,0-3-1.4-3-3c0-1.7,1.4-3.1,3-3.1c1.7,0,3.1,1.4,3.1,3.1C363.6,327.6,362.3,328.9,360.6,328.9z"/>
	<path class="st1" d="M363.6,325.9c0,1.7-1.4,3-3.1,3c-1.7,0-3-1.4-3-3c0-1.7,1.4-3.1,3-3.1C362.3,322.8,363.6,324.2,363.6,325.9z"
		/>
	<path class="st2" d="M360.2,313.1c-1.8,0-3.2,1.5-3.2,3.2c0,1.8,1.5,3.2,3.2,3.2c1.8,0,3.2-1.5,3.2-3.2
		C363.4,314.5,362,313.1,360.2,313.1z M360.2,318.6c-1.2,0-2.3-1-2.3-2.3c0-1.2,1-2.3,2.3-2.3c1.3,0,2.3,1,2.3,2.3
		C362.5,317.5,361.5,318.6,360.2,318.6z"/>
	<path class="st1" d="M362.5,316.3c0,1.3-1,2.3-2.3,2.3c-1.2,0-2.3-1-2.3-2.3c0-1.2,1-2.3,2.3-2.3C361.5,314,362.5,315,362.5,316.3z
		"/>
	<path class="st2" d="M363,305.7c-1.4,0-2.5,1.1-2.5,2.5c0,1.4,1.1,2.5,2.5,2.5c1.4,0,2.5-1.1,2.5-2.5
		C365.5,306.8,364.3,305.7,363,305.7z M363,309.7c-0.8,0-1.5-0.7-1.5-1.5c0-0.8,0.7-1.5,1.5-1.5c0.8,0,1.5,0.7,1.5,1.5
		C364.5,309.1,363.8,309.7,363,309.7z"/>
	<ellipse class="st1" cx="363" cy="308.2" rx="1.5" ry="1.5"/>
	<path class="st2" d="M366.2,300.5c-1,0-1.7,0.8-1.7,1.7c0,1,0.8,1.7,1.7,1.7c1,0,1.7-0.8,1.7-1.7
		C368,301.3,367.2,300.5,366.2,300.5z M366.2,303c-0.4,0-0.8-0.3-0.8-0.8c0-0.4,0.4-0.8,0.8-0.8c0.4,0,0.8,0.3,0.8,0.8
		C367,302.7,366.7,303,366.2,303z"/>
	<circle class="st1" cx="366.2" cy="302.3" r="0.8"/>
	<path class="st2" d="M352.2,344.8c-0.3-1.5-1.1-2.7-2.3-3.6c-1.2-0.8-2.7-1.2-4.2-0.9c-1.5,0.3-2.7,1.1-3.6,2.3
		c-0.8,1.2-1.2,2.7-0.9,4.2c0.3,1.5,1.1,2.7,2.3,3.6c0.9,0.6,2,1,3.1,1c0.3,0,0.7,0,1-0.1c1.5-0.3,2.7-1.1,3.6-2.3
		C352.1,347.7,352.4,346.2,352.2,344.8z M350.5,348.4c-0.7,1-1.7,1.7-3,1.9c-1.2,0.2-2.4,0-3.5-0.7c-1-0.7-1.7-1.7-1.9-3
		c-0.2-1.2,0-2.4,0.7-3.5c0.7-1,1.7-1.7,3-1.9c0.3-0.1,0.6-0.1,0.9-0.1c0.9,0,1.8,0.3,2.6,0.8c1,0.7,1.7,1.7,1.9,3
		C351.4,346.2,351.2,347.4,350.5,348.4z"/>
	<path class="st1" d="M350.5,348.4c-0.7,1-1.7,1.7-3,1.9c-1.2,0.2-2.4,0-3.5-0.7c-1-0.7-1.7-1.7-1.9-3c-0.2-1.2,0-2.4,0.7-3.5
		c0.7-1,1.7-1.7,3-1.9c0.3-0.1,0.6-0.1,0.9-0.1c0.9,0,1.8,0.3,2.6,0.8c1,0.7,1.7,1.7,1.9,3C351.4,346.2,351.2,347.4,350.5,348.4z"/>
	<path class="st2" d="M343.7,335.7c-0.2-1.1-0.8-2-1.7-2.6c-0.9-0.6-2-0.8-3-0.6c-1.1,0.2-2,0.8-2.6,1.7c-0.6,0.9-0.8,2-0.6,3
		c0.2,1.1,0.8,2,1.7,2.6c0.7,0.5,1.5,0.7,2.3,0.7c0.2,0,0.5,0,0.7-0.1C342.7,340,344.1,337.9,343.7,335.7z M340.3,339.5
		c-0.8,0.1-1.6,0-2.3-0.5c-0.7-0.5-1.1-1.2-1.3-2c-0.1-0.8,0-1.6,0.5-2.3c0.5-0.7,1.2-1.1,2-1.3c0.2,0,0.4-0.1,0.6-0.1
		c0.6,0,1.2,0.2,1.7,0.5c0.7,0.5,1.1,1.2,1.3,2C343.1,337.6,342,339.1,340.3,339.5z"/>
	<path class="st1" d="M340.3,339.5c-0.8,0.1-1.6,0-2.3-0.5c-0.7-0.5-1.1-1.2-1.3-2c-0.1-0.8,0-1.6,0.5-2.3c0.5-0.7,1.2-1.1,2-1.3
		c0.2,0,0.4-0.1,0.6-0.1c0.6,0,1.2,0.2,1.7,0.5c0.7,0.5,1.1,1.2,1.3,2C343.1,337.6,342,339.1,340.3,339.5z"/>
	<path class="st2" d="M340.8,326.5c-0.2-0.8-0.6-1.6-1.4-2.1c-0.7-0.5-1.6-0.7-2.4-0.5c-0.8,0.2-1.6,0.6-2.1,1.3
		c-0.5,0.7-0.7,1.6-0.5,2.4c0.3,1.6,1.7,2.6,3.2,2.6c0.2,0,0.4,0,0.6-0.1c0.8-0.2,1.6-0.6,2.1-1.4
		C340.8,328.2,341,327.3,340.8,326.5z M338,329.3c-1.2,0.2-2.4-0.6-2.6-1.8c-0.1-0.6,0-1.2,0.4-1.7c0.3-0.5,0.9-0.8,1.5-0.9
		c0.1,0,0.3,0,0.4,0c0.5,0,0.9,0.1,1.3,0.4c0.5,0.3,0.8,0.9,0.9,1.5C340.1,327.9,339.3,329.1,338,329.3z"/>
	<path class="st1" d="M338,329.3c-1.2,0.2-2.4-0.6-2.6-1.8c-0.1-0.6,0-1.2,0.4-1.7c0.3-0.5,0.9-0.8,1.5-0.9c0.1,0,0.3,0,0.4,0
		c0.5,0,0.9,0.1,1.3,0.4c0.5,0.3,0.8,0.9,0.9,1.5C340.1,327.9,339.3,329.1,338,329.3z"/>
	<path class="st2" d="M341.3,318.2c-0.1-0.7-0.5-1.2-1-1.6c-0.5-0.4-1.2-0.5-1.9-0.4c-1.4,0.3-2.3,1.6-2,2.9c0.1,0.7,0.5,1.2,1,1.6
		c0.4,0.3,0.9,0.4,1.4,0.4c0.2,0,0.3,0,0.5,0c0.7-0.1,1.2-0.5,1.6-1C341.3,319.5,341.4,318.8,341.3,318.2z M340.1,319.5
		c-0.2,0.3-0.6,0.6-1,0.6c-0.4,0.1-0.8,0-1.1-0.2c-0.3-0.2-0.6-0.6-0.6-1c-0.2-0.8,0.4-1.6,1.2-1.8c0.1,0,0.2,0,0.3,0
		c0.3,0,0.6,0.1,0.9,0.3c0.3,0.2,0.6,0.6,0.6,1C340.4,318.8,340.3,319.2,340.1,319.5z"/>
	<path class="st1" d="M340.1,319.5c-0.2,0.3-0.6,0.6-1,0.6c-0.4,0.1-0.8,0-1.1-0.2c-0.3-0.2-0.6-0.6-0.6-1c-0.2-0.8,0.4-1.6,1.2-1.8
		c0.1,0,0.2,0,0.3,0c0.3,0,0.6,0.1,0.9,0.3c0.3,0.2,0.6,0.6,0.6,1C340.4,318.8,340.3,319.2,340.1,319.5z"/>
	<path class="st2" d="M342.7,311.9c-0.2-0.9-1.1-1.6-2-1.4c-0.9,0.2-1.6,1.1-1.4,2c0.2,0.8,0.9,1.4,1.7,1.4c0.1,0,0.2,0,0.3,0
		C342.2,313.7,342.9,312.8,342.7,311.9z M341.1,313c-0.4,0.1-0.8-0.2-0.9-0.6c0-0.2,0-0.4,0.1-0.6c0.1-0.2,0.3-0.3,0.5-0.3
		c0,0,0.1,0,0.1,0c0.4,0,0.7,0.3,0.8,0.6C341.8,312.5,341.5,312.9,341.1,313z"/>
	<path class="st1" d="M341.1,313c-0.4,0.1-0.8-0.2-0.9-0.6c0-0.2,0-0.4,0.1-0.6c0.1-0.2,0.3-0.3,0.5-0.3c0,0,0.1,0,0.1,0
		c0.4,0,0.7,0.3,0.8,0.6C341.8,312.5,341.5,312.9,341.1,313z"/>
	<path class="st2" d="M432.4,330.7c-3.1,0-5.6,2.5-5.6,5.6s2.5,5.6,5.6,5.6c3.1,0,5.6-2.5,5.6-5.6S435.5,330.7,432.4,330.7z
		 M432.4,340.9c-2.5,0-4.6-2.1-4.6-4.6c0-2.5,2.1-4.6,4.6-4.6c2.5,0,4.6,2.1,4.6,4.6C437,338.8,434.9,340.9,432.4,340.9z"/>
	<ellipse transform="matrix(0.2298 -0.9732 0.9732 0.2298 5.7642 679.8647)" class="st1" cx="432.4" cy="336.3" rx="4.6" ry="4.6"/>
	<path class="st2" d="M437.5,321.8c-2.2,0-4,1.8-4,4c0,2.2,1.8,4,4,4c2.2,0,4-1.8,4-4C441.5,323.6,439.7,321.8,437.5,321.8z
		 M437.5,328.9c-1.7,0-3-1.4-3-3c0-1.7,1.4-3.1,3-3.1c1.7,0,3.1,1.4,3.1,3.1C440.5,327.5,439.2,328.9,437.5,328.9z"/>
	<path class="st1" d="M440.5,325.8c0,1.7-1.4,3-3.1,3c-1.7,0-3-1.4-3-3c0-1.7,1.4-3.1,3-3.1C439.2,322.8,440.5,324.2,440.5,325.8z"
		/>
	<path class="st2" d="M437.9,313c-1.8,0-3.2,1.5-3.2,3.2c0,1.8,1.4,3.2,3.2,3.2c1.8,0,3.2-1.5,3.2-3.2
		C441.1,314.5,439.7,313,437.9,313z M437.9,318.5c-1.3,0-2.3-1-2.3-2.3c0-1.3,1-2.3,2.3-2.3c1.2,0,2.3,1,2.3,2.3
		C440.2,317.5,439.1,318.5,437.9,318.5z"/>
	<path class="st1" d="M440.2,316.2c0,1.2-1,2.3-2.3,2.3c-1.3,0-2.3-1-2.3-2.3c0-1.3,1-2.3,2.3-2.3C439.1,314,440.2,315,440.2,316.2z
		"/>
	<path class="st2" d="M435.1,305.7c-1.4,0-2.5,1.1-2.5,2.5c0,1.4,1.1,2.5,2.5,2.5c1.4,0,2.5-1.1,2.5-2.5
		C437.6,306.8,436.5,305.7,435.1,305.7z M435.1,309.7c-0.8,0-1.5-0.7-1.5-1.5c0-0.8,0.7-1.5,1.5-1.5c0.8,0,1.5,0.7,1.5,1.5
		C436.7,309,436,309.7,435.1,309.7z"/>
	<path class="st1" d="M436.7,308.2c0,0.8-0.7,1.5-1.5,1.5c-0.8,0-1.5-0.7-1.5-1.5c0-0.8,0.7-1.5,1.5-1.5
		C436,306.6,436.7,307.3,436.7,308.2z"/>
	<path class="st2" d="M431.9,300.5c-1,0-1.7,0.8-1.7,1.7c0,1,0.8,1.7,1.7,1.7c1,0,1.7-0.8,1.7-1.7
		C433.6,301.2,432.8,300.5,431.9,300.5z M431.9,303c-0.4,0-0.8-0.3-0.8-0.8c0-0.4,0.3-0.8,0.8-0.8c0.4,0,0.8,0.4,0.8,0.8
		C432.6,302.6,432.3,303,431.9,303z"/>
	<circle class="st1" cx="431.9" cy="302.2" r="0.8"/>
	<path class="st2" d="M456,342.6c-0.8-1.2-2.1-2.1-3.6-2.3c-1.5-0.3-2.9,0-4.2,0.9c-1.2,0.8-2.1,2.1-2.3,3.6c-0.3,1.5,0,2.9,0.9,4.2
		c0.8,1.2,2.1,2.1,3.6,2.3c0.3,0.1,0.7,0.1,1,0.1c1.1,0,2.2-0.3,3.1-1c1.2-0.8,2.1-2.1,2.3-3.6C457.2,345.3,456.9,343.8,456,342.6z
		 M455.9,346.6c-0.2,1.2-0.9,2.3-1.9,3c-1,0.7-2.2,1-3.4,0.7c-1.2-0.2-2.3-0.9-3-1.9c-0.7-1-1-2.2-0.7-3.5c0.4-2.2,2.4-3.8,4.5-3.8
		c0.3,0,0.6,0,0.8,0.1C454.8,341.7,456.4,344.1,455.9,346.6z"/>
	<path class="st1" d="M455.9,346.6c-0.2,1.2-0.9,2.3-1.9,3c-1,0.7-2.2,1-3.4,0.7c-1.2-0.2-2.3-0.9-3-1.9c-0.7-1-1-2.2-0.7-3.5
		c0.4-2.2,2.4-3.8,4.5-3.8c0.3,0,0.6,0,0.8,0.1C454.8,341.7,456.4,344.1,455.9,346.6z"/>
	<path class="st2" d="M461.6,334.1c-0.6-0.9-1.5-1.5-2.6-1.7c-1.1-0.2-2.1,0-3,0.6c-0.9,0.6-1.5,1.5-1.7,2.6c-0.4,2.2,1,4.3,3.2,4.7
		c0.2,0.1,0.5,0.1,0.7,0.1c1.9,0,3.6-1.4,3.9-3.3C462.5,336.1,462.3,335,461.6,334.1z M461.3,337c-0.2,0.8-0.6,1.5-1.3,2
		c-0.7,0.5-1.5,0.6-2.3,0.5c-1.7-0.3-2.7-1.9-2.4-3.6c0.2-0.8,0.6-1.5,1.3-2c0.5-0.3,1.1-0.5,1.7-0.5c0.2,0,0.4,0,0.6,0.1
		c0.8,0.1,1.5,0.6,2,1.3C461.3,335.4,461.5,336.2,461.3,337z"/>
	<path class="st1" d="M461.3,337c-0.2,0.8-0.6,1.5-1.3,2c-0.7,0.5-1.5,0.6-2.3,0.5c-1.7-0.3-2.7-1.9-2.4-3.6c0.2-0.8,0.6-1.5,1.3-2
		c0.5-0.3,1.1-0.5,1.7-0.5c0.2,0,0.4,0,0.6,0.1c0.8,0.1,1.5,0.6,2,1.3C461.3,335.4,461.5,336.2,461.3,337z"/>
	<path class="st2" d="M463.1,325.2c-0.5-0.7-1.2-1.2-2.1-1.3c-0.9-0.2-1.7,0-2.4,0.5c-0.7,0.5-1.2,1.2-1.4,2.1
		c-0.3,1.8,0.8,3.4,2.6,3.8c0.2,0,0.4,0.1,0.6,0.1c0.6,0,1.3-0.2,1.8-0.6c0.7-0.5,1.2-1.2,1.4-2.1
		C463.8,326.8,463.6,325.9,463.1,325.2z M462.7,327.5c-0.2,1.2-1.4,2-2.6,1.8c-1.2-0.2-2-1.4-1.8-2.6c0.1-0.6,0.5-1.1,0.9-1.5
		c0.4-0.3,0.8-0.4,1.3-0.4c0.1,0,0.3,0,0.4,0c0.6,0.1,1.1,0.4,1.5,0.9C462.7,326.3,462.8,326.9,462.7,327.5z"/>
	<path class="st1" d="M462.7,327.5c-0.2,1.2-1.4,2-2.6,1.8c-1.2-0.2-2-1.4-1.8-2.6c0.1-0.6,0.5-1.1,0.9-1.5c0.4-0.3,0.8-0.4,1.3-0.4
		c0.1,0,0.3,0,0.4,0c0.6,0.1,1.1,0.4,1.5,0.9C462.7,326.3,462.8,326.9,462.7,327.5z"/>
	<path class="st2" d="M459.7,316.1c-0.7-0.1-1.3,0-1.9,0.4c-0.5,0.4-0.9,1-1,1.6c-0.3,1.4,0.6,2.7,2,2.9c0.2,0,0.3,0,0.5,0
		c0.5,0,1-0.2,1.4-0.4c0.6-0.4,0.9-0.9,1-1.6C462,317.7,461.1,316.4,459.7,316.1z M460.7,318.9c-0.1,0.4-0.3,0.8-0.6,1
		c-0.3,0.2-0.7,0.3-1.1,0.2c-0.8-0.2-1.4-1-1.2-1.8c0.1-0.4,0.3-0.8,0.6-1c0.3-0.2,0.6-0.3,0.9-0.3c0.1,0,0.2,0,0.3,0
		c0.4,0.1,0.8,0.3,1,0.6C460.7,318.1,460.8,318.5,460.7,318.9z"/>
	<path class="st1" d="M460.7,318.9c-0.1,0.4-0.3,0.8-0.6,1c-0.3,0.2-0.7,0.3-1.1,0.2c-0.8-0.2-1.4-1-1.2-1.8c0.1-0.4,0.3-0.8,0.6-1
		c0.3-0.2,0.6-0.3,0.9-0.3c0.1,0,0.2,0,0.3,0c0.4,0.1,0.8,0.3,1,0.6C460.7,318.1,460.8,318.5,460.7,318.9z"/>
	<path class="st2" d="M457.4,310.4c-0.9-0.2-1.9,0.4-2,1.4c-0.2,0.9,0.4,1.9,1.4,2c0.1,0,0.2,0,0.3,0c0.3,0,0.7-0.1,1-0.3
		c0.4-0.3,0.6-0.7,0.7-1.1C459,311.5,458.4,310.6,457.4,310.4z M457.9,312.3c0,0.2-0.2,0.4-0.3,0.5c-0.2,0.1-0.4,0.2-0.6,0.1
		c-0.4-0.1-0.7-0.5-0.6-0.9c0.1-0.4,0.4-0.6,0.8-0.6c0.1,0,0.1,0,0.1,0c0.2,0,0.4,0.2,0.5,0.3C457.9,311.9,457.9,312.1,457.9,312.3z
		"/>
	<path class="st1" d="M457.9,312.3c0,0.2-0.2,0.4-0.3,0.5c-0.2,0.1-0.4,0.2-0.6,0.1c-0.4-0.1-0.7-0.5-0.6-0.9
		c0.1-0.4,0.4-0.6,0.8-0.6c0.1,0,0.1,0,0.1,0c0.2,0,0.4,0.2,0.5,0.3C457.9,311.9,457.9,312.1,457.9,312.3z"/>
	<path class="st2" d="M339.8,377.3v66.6c0,14.4,5.2,28.4,14.6,39.4c9.3,10.8,22,18,36,20.3l9.5,9.5l9.3-9.3
		c14.2-2.1,27.2-9.2,36.6-20.1c9.6-11,14.9-25.1,14.9-39.7v-66.6H339.8z M459.7,443.9c0,29.3-21.9,54.6-50.8,58.9l-0.2,0l-8.9,8.9
		l-9-9l-0.2,0c-28.9-4.7-49.9-29.4-49.9-58.7v-65.6h119V443.9z"/>
	<path class="st2" d="M410.2,342c0.7,0.5,1.3,1,1.8,1.6c-0.6-0.5-1.3-1-2-1.4c-0.7-0.4-1.4-0.7-2.2-1c-0.7-0.3-1.5-0.5-2.3-0.8
		c-0.5-0.1-1-0.3-1.5-0.4c-0.4,1-1.2,1.8-2.2,2.3c0.1,0.4,0.3,0.8,0.4,1.2c0.3,0.8,0.6,1.6,1,2.4c0.4,0.8,0.8,1.5,1.4,2.2
		c0.5,0.7,1.2,1.3,1.9,1.8c-0.8-0.4-1.5-0.9-2.1-1.5c-0.6-0.6-1.2-1.3-1.7-2.1c-0.5-0.7-0.9-1.5-1.4-2.3c-0.2-0.4-0.4-0.8-0.6-1.2
		c-0.2,0-0.5,0.1-0.7,0.1h0c-0.2,0-0.5,0-0.7-0.1c-0.2,0.4-0.4,0.8-0.6,1.2c-0.4,0.8-0.9,1.6-1.4,2.3c-0.5,0.7-1.1,1.4-1.7,2.1
		c-0.6,0.6-1.3,1.2-2.1,1.5c0.7-0.5,1.4-1.1,1.9-1.8c0.5-0.7,1-1.4,1.4-2.2c0.4-0.8,0.7-1.6,1-2.4c0.1-0.4,0.3-0.8,0.4-1.2
		c-1-0.4-1.8-1.3-2.2-2.3c-0.5,0.1-1,0.2-1.5,0.4c-0.8,0.2-1.5,0.5-2.3,0.8c-0.7,0.3-1.5,0.6-2.2,1c-0.7,0.4-1.4,0.8-2,1.4
		c0.6-0.6,1.2-1.1,1.8-1.6c0.7-0.5,1.4-0.9,2.1-1.3c0.7-0.4,1.5-0.8,2.2-1.1c0.5-0.2,1-0.4,1.5-0.6c0-0.2,0-0.4,0-0.6
		c0-0.3,0-0.6,0.1-0.9c-0.4-0.1-0.8-0.2-1.2-0.3c-0.9-0.3-1.7-0.6-2.6-1c-0.1-0.1-0.2-0.1-0.3-0.2c-0.2-0.1-0.4-0.2-0.5-0.3
		c-0.1-0.1-0.2-0.1-0.3-0.2c-0.2-0.1-0.3-0.2-0.4-0.3c-0.1-0.1-0.2-0.1-0.2-0.2c-0.1-0.1-0.3-0.2-0.4-0.3c-0.7-0.6-1.2-1.3-1.6-2.1
		c0.5,0.8,1.1,1.4,1.8,1.9c0.7,0.5,1.5,0.9,2.3,1.2c0.1,0,0.2,0.1,0.3,0.1c0.7,0.2,1.5,0.4,2.2,0.6c0.5,0.1,0.9,0.1,1.4,0.2
		c0.3-0.6,0.7-1.1,1.2-1.5c0.3-0.2,0.6-0.4,1-0.6c-0.1-0.7-0.3-1.4-0.5-2.1c-0.3-1.1-0.6-2.3-1-3.4c-0.1-0.2-0.1-0.3-0.2-0.5
		c-0.1-0.2-0.2-0.5-0.3-0.7c-0.1-0.2-0.1-0.3-0.2-0.4c-0.1-0.2-0.2-0.4-0.3-0.6c0-0.1-0.1-0.2-0.2-0.3c0,0,0,0,0-0.1
		c0-0.1-0.1-0.2-0.2-0.3c0-0.1-0.1-0.2-0.2-0.3c-0.5-1-1.2-2-2-2.9c0.9,0.8,1.6,1.7,2.3,2.7c0.1,0.1,0.1,0.2,0.2,0.3
		c0.1,0.1,0.1,0.2,0.2,0.3c0.1,0.2,0.2,0.4,0.3,0.6c0,0.1,0.1,0.1,0.1,0.2c0,0.1,0.1,0.1,0.1,0.2c0.3,0.5,0.5,1.1,0.8,1.6
		c0.5,1.1,0.9,2.2,1.3,3.3c0.2,0.7,0.4,1.4,0.6,2.1c0.2,0,0.4,0,0.6,0h0c0.2,0,0.4,0,0.6,0c0.2-0.7,0.4-1.4,0.6-2.1
		c0.4-1.1,0.8-2.2,1.3-3.3c0.2-0.5,0.4-0.9,0.7-1.4c0-0.1,0.1-0.2,0.1-0.3c0.1-0.3,0.3-0.5,0.4-0.7c0.1-0.1,0.2-0.3,0.2-0.4
		c0.1-0.1,0.2-0.2,0.2-0.4c0.6-1,1.4-2,2.3-2.7c-0.8,0.9-1.5,1.9-2,2.9c-0.1,0.1-0.1,0.2-0.2,0.3c0,0-0.1,0.1-0.1,0.2
		c0,0.1-0.1,0.1-0.1,0.2c-0.1,0.2-0.2,0.3-0.2,0.5c-0.1,0.2-0.2,0.5-0.3,0.7c-0.1,0.3-0.2,0.5-0.3,0.8c0,0.1-0.1,0.3-0.1,0.4
		c0,0.1-0.1,0.1-0.1,0.2c-0.4,1.1-0.7,2.2-1,3.4c-0.2,0.7-0.3,1.4-0.5,2.1c0.1,0,0.2,0.1,0.4,0.2c0.8,0.4,1.4,1.1,1.9,1.9
		c0.5,0,0.9-0.1,1.4-0.2c0.7-0.1,1.5-0.3,2.2-0.5c0.1,0,0.2-0.1,0.3-0.1c0.8-0.3,1.6-0.7,2.3-1.2c0.7-0.5,1.3-1.1,1.8-1.9
		c-0.4,0.8-0.9,1.5-1.6,2.1c-0.1,0.1-0.2,0.1-0.2,0.2c-0.1,0.1-0.2,0.1-0.2,0.2c-0.1,0.1-0.1,0.1-0.2,0.2c-0.2,0.1-0.4,0.3-0.5,0.4
		c-0.1,0.1-0.2,0.1-0.3,0.2c-0.2,0.1-0.3,0.2-0.5,0.3c-0.1,0.1-0.2,0.1-0.3,0.2c-0.8,0.4-1.7,0.7-2.6,1c-0.4,0.1-0.8,0.2-1.2,0.3
		c0.1,0.3,0.1,0.6,0.1,0.9c0,0.2,0,0.4,0,0.6c0.5,0.2,1,0.4,1.5,0.6c0.8,0.3,1.5,0.7,2.2,1.1C408.8,341,409.5,341.5,410.2,342z"/>
	<g class="st3">
		<path class="st0" d="M431.5,427.9c-1.4,0.4-2.7,0.8-4,1.4c-0.1,1-0.2,2-0.4,3c-0.3,2.1-0.8,4.2-1.3,6.2c-0.6,2.1-1.3,4.1-2.2,6.1
			c-0.1,0.1-0.1,0.3-0.2,0.4c-0.7,1.7-1.6,3.3-2.5,4.9c-0.4,0.6-0.7,1.2-1.1,1.8c-0.7,1.1-1.4,2.1-2.2,3.1c-2.2,2.9-4.7,5.5-7.4,7.9
			c-1.8,1.5-3.7,2.9-5.7,4.1c2.1-0.2,4.2-0.6,6.3-1.2c3.1-0.8,6.2-2,9-3.5c3.2-1.6,6.1-3.6,8.7-6c1.5-1.3,2.8-2.6,4.1-4.1
			c3.4-3.8,6.1-8.2,8-13.1c1.6-4.1,2.6-8.4,2.9-13c0,0,0,0,0,0C439.4,426.2,435.4,426.8,431.5,427.9z"/>
		<path class="st0" d="M381.5,454.4c-0.6-0.8-1.1-1.6-1.7-2.4c-0.4-0.6-0.8-1.2-1.2-1.9c-1.1-1.8-2-3.7-2.9-5.6
			c0-0.1-0.1-0.2-0.1-0.3c-1.5-3.5-2.6-7.1-3.2-10.8c-0.1-0.6-0.2-1.2-0.3-1.7c-0.1-0.9-0.2-1.7-0.3-2.6c-0.8-0.3-1.6-0.6-2.4-0.9
			c-4.2-1.3-8.6-2-13.2-2.1c0,0,0,0,0,0c0.3,4.2,1.1,8.2,2.5,12c1.2,3.3,2.8,6.5,4.7,9.4c2.2,3.2,4.7,6.2,7.6,8.8
			c2.6,2.3,5.5,4.3,8.6,5.9c4.8,2.5,10.1,4.2,15.7,4.8C389.9,463.7,385.2,459.4,381.5,454.4z M365.3,434.8
			C365.3,434.8,365.4,434.8,365.3,434.8L365.3,434.8C365.4,434.8,365.4,434.8,365.3,434.8z"/>
		<path class="st0" d="M387.4,445.6c-0.2-1-0.4-2-0.5-3c-0.3-1.9-0.4-3.8-0.5-5.7c0-1.2,0-2.4,0-3.6c0.1-3.1,0.5-6.1,1.2-9.1
			c0.1-0.3,0.1-0.6,0.2-0.9c0.3-1.4,0.7-2.8,1.2-4.2c-0.1-0.1-0.1-0.1-0.2-0.2c-3.2-3-6.9-5.5-11-7.5c0,0,0,0,0,0
			c-1.5,3.9-2.5,7.9-2.9,11.9c-0.3,3.5-0.3,7,0.2,10.5c0.2-0.5,0.3-0.9,0.5-1.4c-0.2,0.5-0.4,0.9-0.5,1.4c0.6,3.9,1.6,7.6,3.1,11.2
			c1.4,3.2,3.1,6.2,5.2,9c3.2,4.3,7.3,8.1,12.1,11.1c-3.5-5-5.9-10.4-7.5-16C387.9,447.9,387.6,446.7,387.4,445.6z"/>
		<path class="st0" d="M414,430.2c0,0.2,0,0.3,0,0.5c0.2,2.1,0.2,4.2,0.2,6.3c-0.1,1.9-0.3,3.9-0.5,5.8c-0.2,1.4-0.5,2.9-0.8,4.3
			c-0.2,0.8-0.4,1.5-0.6,2.2c-1,3.6-2.5,7.2-4.3,10.6c-0.7,1.4-1.5,2.7-2.4,4c1.2-0.8,2.4-1.7,3.5-2.7c2.5-2.1,4.7-4.5,6.6-7
			c2.1-2.8,3.9-5.9,5.3-9.1c0.8-1.8,1.4-3.6,1.9-5.5c0-1.4-0.1-2.8-0.3-4.2c0.2,1.4,0.3,2.8,0.3,4.2c1.4-4.9,1.9-10,1.6-15.2
			c-0.3-4.3-1.3-8.7-3-13c0,0,0,0,0,0c-3.8,1.8-7.2,4.1-10.2,6.8c0,0,0,0,0,0c0.6,1.7,1.1,3.3,1.4,5
			C413.4,425.6,413.7,427.9,414,430.2z"/>
		<path class="st0" d="M410.4,448.6c1-3.4,1.5-6.9,1.6-10.5c0.1-1.9,0-3.9-0.2-5.8c-0.5-5.1-1.8-10.1-4.1-14.7
			c-1.9-3.9-4.4-7.7-7.5-11c0,0,0,0,0,0c-2.9,3.1-5.2,6.4-7,10c-1.6,3.1-2.8,6.4-3.6,9.8c-0.9,3.8-1.3,7.7-1.2,11.5
			c0.1,3.5,0.6,6.9,1.5,10.3c1.5,5.5,4.1,10.8,7.7,15.4c0.3,0.4,0.6,0.7,0.8,1c0.5,0.6,1.1,1.3,1.6,1.9c0,0,0,0,0,0
			c0.3-0.3,0.6-0.6,0.8-0.9c2.2-2.5,4.1-5.3,5.7-8.1C408.3,454.7,409.5,451.7,410.4,448.6z M400.3,419L400.3,419
			C400.3,419,400.3,419,400.3,419C400.3,419,400.3,419,400.3,419z M400.2,440.1C400.3,440.1,400.3,440.1,400.2,440.1L400.2,440.1
			C400.3,440.1,400.3,440.1,400.2,440.1z"/>
	</g>
</g>
</svg>
